<svg version="1.1" id="Layer_1" xmlns="http://www.w3.org/2000/svg" x="0" y="0" viewBox="0 0 960 599" style="enable-background:new 0 0 960 599" xml:space="preserve"><style>.st5{display:none}.st7{fill:#655e69}.st8{display:inline}</style><g id="Color_Bars"><path style="fill:#fcee2d" d="M0 0h960v271.5H0z"/><path style="fill:#65b561" d="M0 369.6h960V599H0z"/><path style="fill:#6caedf" d="M0 334h960v35.6H0z"/><path style="fill:#f15a24" d="M0 301.4h960V334H0z"/><path style="fill:#47c3d2" d="M0 271.5h960v29.9H0z"/></g><g id="Seal"><path id="RightWeed" d="M293.3 132c-.9-.9-1.9-1.8-2.7-2.8-.7-1-1.4-2.1-1.8-3.2-.2-.4.2-1.2.5-1.7 1.1-1.4 1.9-2.8 2.2-4.6.1-.3.6-.6 1-.8.2-.1.5 0 .8 0 .2 0 .4-.2.6-.3-.2-.1-.4-.3-.6-.3-1.2-.1-1.3-.8-1.1-1.7.3-2.2-.3-2 2.1-2h.8c1.4.1 1.5-.1 1.4-1.5 0-1.7.6-3.2 2-4.3.9-.7 1.4-.6 2 .4.3.4.5.9.5 1.4.2 2.3.1 4.6-1.2 6.7-.3.4-.2 1.1-.3 1.6.5-.2 1.1-.3 1.6-.6.7-.5 1.3-1.3 2-1.8.9-.6 1.1-.4 1.3.6.3 1.2-.2 1.9-1 2.6-.8.7-1.4 1.5-2.1 2.2-.4.3-.9.5-1.4.8-.3.2-.6.3-.8.5-.2.3-.3.7-.5 1 .4-.1.7-.1 1-.3 1-.6 2.1-1.3 3.1-2s1.4-.6 1.7.6c.3 1.4.1 2.2-1.3 2.9-1.5.7-2.9 1.7-4.3 2.6-.2.2-.3.6-.4.9.4.1.8.4 1.1.3 1.4-.4 2.7-.9 4-1.4 1.6-.5 1.9-.3 1.9 1.4v.8c-.1 1.3-.6 1.9-1.9 2-.5.1-1 0-1.5.1l-4.2.9c-.1 0-.2.2-.3.3.2.1.4.3.6.3h4.2c1.6 0 1.6.1 1.4 1.7-.2 1.5-.9 2-2.4 2-1.6 0-3.1 0-4.7.1-.3 0-.5.4-.8.6.3.2.6.7.9.7 1.1 0 2.2 0 3.3-.6.7-.4 2-.3 2.7.1.8.5.1 2.5-.8 3-2.3 1.3-4.7 1.3-7.2.9-.1 0-.3-.1-.4-.1h-.8c.4 0 .8.1 1.2.1.3 1 1.2.7 1.9.9.6.1 1.6.2 1.6.5.2.9.2 1.9.1 2.9 0 .1-.5.3-.8.3H295c-1.2 0-1.5-1-2.1-1.6-.3-.3-.9-.9-1.1-.8-.5.3-.8.8-1.1 1.3-.3.5-.6 1-.9 1.6-.2.5-.5 1.1-.3 1.5.1.3.8.5 1.3.5 2.4.2 4.3 2.1 4.2 4.5 0 1.6-.1 1.6 1.5 1.7h.9c.6-.1.9.2.9.9 0 5.7 0 11.4-.1 17.1 0 2.6-1.7 4.1-3.8 3.9-1.1-.1-2-.6-2.4-1.8-.2-.7-.5-1.4-.8-2.1-.2-.6-.4-.6-.9-.1-1.7 1.5-1.7 3.5-1.6 5.5.1 1.6-.8 2.8-1.6 4-.8 1.1-3.2.8-4.1-.2-1-1.1-1.5-2.2-1.4-3.8.1-1.8 0-3.6-.1-5.4 0-.3-.2-.6-.3-.9-.1.3-.2.6-.2.9 0 2.3.1 4.5-.9 6.7-.1.3 0 .9.3 1.2.9 1 1.9 2 2.8 3 .2.2.2.6.3.9 0 .3-.1.7 0 .9.3.6.2.9-.3 1.3s-.6.8.1 1.2c.7.5.7 1.1-.1 1.4-.3.2-.8.2-1.1.3-.1 0-.2.2-.3.3l.3.3c.9.6 1.1 2.1.3 2.8-.6.5-.6 1-.4 1.6.3 1 .1 1.8-1.2 2-.2 0-.5.5-.6.8-.1.5.1 1.1 0 1.6 0 .3-.3.7-.6.9-.2.1-.6 0-.8-.2-1-.8-1.4-.7-2 .5-.1.3-.2.6-.4.9-.3.3-.7.5-1 .7-.2-.3-.6-.7-.6-1-.1-.8 0-1.6 0-2.5 0-.6-.2-.9-.8-.5-.2.1-.4.3-.6.3-.7 0-1.7 0-1.9-.3-.4-.8-.3-1.8.4-2.5.3-.3.6-.5.8-.8.6-.7.5-1.2-.3-1.6-.6-.3-1.2-.6-1.7-1-.8-.5-.8-.9 0-1.4.1-.1.2-.1.3-.2.4-.2.9-.4 1.3-.6-.4-.1-.9-.3-1.3-.4-.8-.3-.9-.9-.3-1.6.8-.9.9-1.3-.1-2.1-.7-.5-.5-.8 0-1.3.3-.3.8-.6 1-1 .3-.5.4-1 .5-1.5.1-.8.1-1.7 0-2.6 0-.4-.2-.9-.5-1.1-.6-.4-.6-.8-.2-1.4.7-1.1 1.5-2.1 2.2-3.2.2-.4.3-.9.3-1.3 0-.7.2-1 .9-1.2.4-.1.8-.5 1.2-.7.7-.4 1.3-.9 2-1.2 1.4-.7 1.7-2.9.4-3.8-.2-.1-.6 0-.8.1-2 1.9-4.1 3.7-5.8 5.8-1.6 2-2.6 4.5-3.8 6.8-.4.7-.6 1.4-.9 2.2-.1.3-.1.7-.1 1 0 .7 0 1.5-.1 2.2 0 .2-.2.5-.4.7-.2-.2-.5-.3-.6-.5-.6-.8-1.1-1.7-.8-2.8.1-.2 0-.5-.1-.8-.2-.5-.4-1.1-.8-1.5-1.1-1.1-.6-2-.1-3.1.3-.7 0-1.9-.3-2.7-.3-.8-.5-1.9-1.8-1.9-.1 0-.4-.5-.4-.8-.1-.7 0-1.3-.1-2-.1-.4-.3-.8-.5-1.3-.5.2-1.2.4-1.4.8-.7 1-1.2 2.1-1.7 3.2-.1.2-.1.4-.3.5l-.9.6c-.1-.3-.3-.6-.3-.9v-1.5c0-.2-.1-.4-.2-.6-.2.2-.5.3-.5.5-.4 1.1-1.1 1.7-2.3 2-.9.2-1.2 0-.9-.9.1-.3 0-.6 0-.9-.3.1-.6.1-.9.2-.9.4-1.8 1-2.7 1.3-.6.2-1.7.2-1.8 0-.2-.7-.4-1.7-.1-2.3.3-.7 1.1-1.3 1.9-1.7 1.7-.8 3.5-1.4 5.3-2.1 1.9-.7 3.8-1.4 5.6-2.2.7-.3 1-.9.9-1.7-.1-1 0-2 0-3 0-.7 0-1.3.6-1.9.4-.4.4-1.2.4-1.9 0-1.5-.4-3 .6-4.3.2-.2.1-.6.1-.9 0-1.6.1-3.1.1-4.7 0-.6-.1-1.2.9-1.2.8 0 1 .4 1 1.2V160.3c0 .9.4 1.5 1.2 1.7 1.9.5 4 0 4.9-1.9 1.3-2.6 2.6-5.2 3.8-7.8.5-1.1.7-2.4 1-3.6 0-.1-.1-.2-.1-.3-.1.1-.2.1-.3.2-.3.9-1.1.9-1.7.6-.9-.3-1.8-.8-1.9-1.9-.1-.7 0-1.3 0-2 0-2.5-.1-4.9 0-7.4 0-.7.4-1.4.6-2 0-.1.3-.3.2-.4-.4-1.5 1.1-2.6 1-4.1 0-.4.6-1 1-1.3.4-.3 1.1-.3 1.3-.6.5-1 .8-2.1 1.1-3.1.7-1.8.5-4 2.3-5.4.2-.2.4-.4.7-.4l4.8-1.2c.2-.1.4-.1.6-.2-.1-.2-.2-.4-.4-.6-.1-.2-.4-.4-.3-.4.5-1.3-.8-2-.9-3.1 0-.2-.6-.6-.9-.6-1.6.1-3.1 0-4.5-.9-.2-.1-.5-.2-.7-.4-1-1.1-2-2.1-3.4-2.7-1.4-.7-2.7-1.6-4-2.4-.3-.2-.5-.5-.8-.8.3-.2.6-.6.9-.7.9-.1 1.8 0 2.7-.2 1.9-.3 3.3.5 4.5 1.8.4.5 1.2.7 1.7 1.1.4.3.7.6 1.1.9.4.2.9.3 1.3.5.1-.6.3-1.2.3-1.7 0-.2-.5-.5-.8-.6-.6-.2-1.4 0-1.7-.4-.3-.3.1-1.1-.1-1.7-.2-.7-.6-1.5-1.1-2.1-.6-.7-.9-1.4-.7-2.3.2-1.1-.1-1.3-1.3-1.4-1.6-.1-1.9-.3-2.1-1.9-.1-.9-.1-1.9-.1-2.8 0-.7-.2-1.3-.8-1.8-.6-.4-1-1-1.5-1.5s-1-.5-1.5.1c-.6.7-1.2 1.4-1.9 2.1-.4.3-.9.7-1.4.6-.3 0-.7-.6-.9-1-.4-.9-.6-.9-1.5-.4-.5.3-1 .4-1.5.7-.2-.6-.5-1.2-.4-1.7.4-1.3.9-2.5 1.5-3.8.2-.3.7-.5 1-.7l.9-.3c.3-.3.8-.9.7-1-.5-.6-1-.3-1.4.2-1 1.2-2.1 2.4-3 3.7-.9 1.3-1.3 1.5-2.5.4-.6-.6-1.4-1.1-1.9-1.8-.4-.5-.4-1.1-.7-1.7-.1-.2-.2-.5-.3-.7-.2.2-.4.4-.5.6-.1 1-.8 1.4-1.6 1.6-.5.1-1.5.1-1.6-.2-.3-.6-.2-1.3-.1-2s.5-1.3.8-2c.1-.2 0-.5-.1-.8-.3 0-.5.1-.8.1-1 .1-2 .4-3 .3-1-.1-1.1-.6-.5-1.4 1.1-1.4 2.7-2.3 4.3-3 .9-.4 1.9-.7 2.8-1 .2-.1.3-.2.5-.3-.1-.1-.3-.4-.4-.3-1.8.4-3.9-.6-5.4 1.3-.5.7-1.3 1.3-2.1 1.9-.3.2-.9.3-1.3.2-.2 0-.2-.6-.3-1-.1-.4-.1-.9-.1-1.3-.1-1.3.5-2.2 1.6-2.8 1.1-.5 2.2-1.1 3.4-1.7.3-.1.7-.2 1-.3.3-.1.5-.1.8-.1-.1-.2-.1-.6-.3-.7-.2-.2-.6-.4-.8-.3-2.1.7-4.2 1.4-5.9 2.8-.6.5-1.4.8-2.1 1-.3.1-.9-.2-.9-.4-.1-.5-.2-1.2 0-1.7.5-2 2.1-3.2 3.5-4.6.3-.3.4-.7.6-1.1-.5-.1-1-.4-1.4-.3-1.2.4-2.4 1-3.6 1.5-.6.2-1.3.5-2 .5s-1.1-.6-.6-1.1c.8-.9 1.7-1.6 2.6-2.4.2-.2.4-.3.6-.4-.2-.1-.4-.3-.7-.4-1.4-.4-2-1.3-1.8-2.8.1-.9.6-1.3 1.4-.9 1.4.6 2.7 1.3 4.1 1.9 1.4.6 2.9 1.1 4.3 1.7.1.1.3.1.4.2 2.7 2.3 5.8 4 7.5 7.3.7 1.4 2.4 2.4 3.7 3.5.6.5 1.3 1 2 1.4.4.2.9.3 1.4.5.1-.5.4-1.1.3-1.5-.6-1.7-2-2.7-3.4-3.6-1.2-.8-2.5-1.4-3.7-2.2-.7-.5-.9-1.2-.7-2.1.1-.4.1-.9-.1-1.1-1.1-1.1-.7-2.4-.7-3.6 0-.4-.2-.9-.4-1.3-.6-1-1.3-2-1.9-3-.4-.7-.8-1.4-1.1-2.2-.1-.3-.2-.7-.1-.9.1-.2.6-.2.8-.1 1.2.5 2.3 1 3.4 1.7.8.5 1.5 1.3 2 2.1.4.6.6 1.4.9 2.1.3.6.7 1.3.8 1.9.1.9.1 1.8.1 2.7-.1 1.6 1.2 2.3 2.1 3.2.5.5.5-.2.5-.6 0-.9-.2-1.7.8-2.3.7-.4 1.1-.3 1.5.4.1.2.2.3.3.5.4 1.4.8 2.8 1.1 4.2.4 1.5.9 3 1.3 4.5.2.7.1 1.5.3 2.2.2.5.6.9.9 1.3.4.6.9.6 1.7.5 2.1-.2 4.3-.6 6.4.4.3.2.8.1 1.2 0 .1 0 .3-.5.2-.6-.3-.3-.6-.6-1-.7l-4.5-.9c-.3-.1-.5-.3-.8-.5-.4-.2-.8-.4-1.2-.4-1.5-.1-2.6-1.2-2.5-2.8 0-.2.2-.6.3-.6 1.1 0 2.2-.7 3.3.1.4.3.9.3 1.3.5.6.2 1.2.5 1.8.7.4.1.8.1 1.2.2 0-.3 0-.7-.1-1-.9-1.6-1.8-3.2-2.7-4.7-.2-.4-.4-.8-.4-1.2 0-.5 0-1.4.2-1.5.5-.2 1.3-.2 1.8 0 .6.2 1.1.8 1.5 1.3.8 1.1 1.4 2.4 2.2 3.5.1.2.5.4.6.3.2 0 .3-.4.5-.6.1-.1 0-.3.1-.5.4-2.5.5-2.5 3-2.6.5 0 1.3.2 1.4.5.2.7.5 1.5-.2 2.3-.8.8-1.4 1.6-2.1 2.5-.1.1 0 .5 0 .7.2-.1.5-.1.6-.3.6-.6 1.2-1.2 1.8-1.9.4-.5.8-.4 1.1.1.7 1.3 1.2 2.6.3 4.1-.6 1-.9 2.2-2 2.8-.1 0-.1.2-.2.4h.4c.3-.2.7-.6 1-.6.6 0 1.5-.1 1.9.3.6.6.6 1.6-.1 2.2-.5.5-1.2.7-1.7 1.2-.5.4-.9.9-1.3 1.3.5-.1 1.1-.2 1.6-.4s.9-.5 1.4-.7c1.6-.8 1.5-.8 2.7.5.7.7.7 1.2-.2 1.7l-3.3 1.8c-.1.1-.2.3-.3.5.2 0 .5.2.6.1 1.3-1.1 2.8-.8 4.3-.8.8 0 1.2.3.7 1-.4.6-.9 1.3-1.5 1.7-1.2.7-2.5 1.2-3.7 1.8-.4.2-.9.5-1.1.8-.2.4-.3.9-.2 1.4 0 .1.8.3 1.1.2 1.7-.5 3.4-1 5.1-.8.3 0 .8-.1 1 .1.3.2.6.6.7 1 0 .2-.5.6-.8.6-1.3.4-2.7.6-4 1-.7.2-1.4.7-2 1-.1 0-.1.4 0 .5.3.3.7.7 1 .8.3.1.7-.2 1-.4 1.6-.9 3.3-1.5 5.1-1.3.4 0 1 .3 1.2.7.1.2-.2.8-.4 1.1-1.3 1.8-3.5 2-5.4 2.7-.3.1-.7.1-1 .4-.2.1-.1.5-.1.8 0 .1.5.2.7.1.7-.2 1.3-.5 2-.8.3-.1.7-.2 1-.4 1-.8 1.7-.5 2.5.4.8 1 .7 1.6-.6 2-1 .3-1.9.6-2.9.9-.3.1-.6.4-.9.6.3.1.6.2 1 .2h2.2c1.1.1 1.4.7.8 1.6-.4.5-1.1.9-1.7 1.2-.5.2-1.1 0-1.6.1-1.1.1-1.7.9-1.7 2 .1 2.4.1 4.8.1 7.3 0 .6-.4 1.3-.9 1.6-2.2 1.6-3.1 6-2.6 8.4 0 .2.3.4.5.5.1.1.3 0 .5 0 2.2.7 4 .6 5.5 1.5.1 0 .1 0 0 0 .1 0 .1 0 0 0zm-11.8 3.4c-1 0-1.6.6-1.9 1.5-.7 1.7-1.3 3.3-2 5-.3.8-1 1.6-1 2.3.1 1 0 1.7-.6 2.4-.2.2 0 .6 0 1 .2-.1.5-.2.7-.4.7-.6 1.3-1.3 2.1-1.9.3-.2.9-.2 1.2 0 .2.1.4.8.3 1-.7 1.5-1.4 3-2.4 4.2-.8 1-1.2 1.8-1.1 3 .1 1.2-.1 2.4-.7 3.5-.7 1.2-1.3 2.5-1.7 3.8-.2.4.1 1 .1 1.5.5-.1 1.2-.1 1.6-.4.6-.6 1.1-1.3 1.5-2 .5-.8.7-1.9 1.3-2.6 1.4-1.5 2.3-3.2 2.8-5.1.4-1.4.1-3.1.2-4.7 0-.1 0-.2-.1-.2-1-.6-.8-1.7-.8-2.6 0-1.2-.2-2.5.2-3.5.7-1.9.6-3.8.3-5.8 0-.2 0-.4.1-.5h-.2c0 .2.1.3.1.5zm3.8-8.2c0-.8 0-1.4-.1-2-.1-.9-.7-1.3-1.5-1.5-.6-.2-1 0-1 .7 0 1 .1 1.9 0 2.9 0 .5-.3 1.1-.6 1.5-.3.4-.6.8-.2 1.3.1.2.1.8 0 .8-1.1.4-.9 1.3-.9 2.1 0 .4.3 1.2.5 1.2.7 0 1.1-.4 1.1-1.2 0-.3.1-.8.3-.9 1.9-1.2 2.3-3.1 2.4-4.9zm-1.5 33.7c-.1 0-.2 0-.2-.1v-2.4c0-.2-.4-.6-.5-.5-.7.1-2.6 4.3-2.3 4.9.4.8.8 1.7 1.3 2.5.1.2.3.3.5.4.1-.2.3-.3.3-.5.2-1.4.5-2.9.9-4.3zm10.9-2.5c.1 0 .1 0 .2-.1 0-.2.1-.3.1-.5-.1-.3-.2-.6-.4-.9-.2.2-.4.4-.5.7-.2.4-.4.9-.6 1.3-.1.3-.3.6-.3.8.4 1.2.8 2.3 1.3 3.4.1.2.3.5.5.6.2.1.7-.2.7-.2-.1-1.2-.1-2.4-.3-3.5-.2-.5-.5-1.1-.7-1.6zm-14.6-60.2c0 .1.1.2.1.3 1-.5 2.1-.9 3.1-1.5.6-.3.3-.9-.2-1.1-.5-.2-1-.3-1.5-.2-.9.2-1.7.5-2.6.8-.5.2-.9.4-1.4.6.5.4.9.8 1.5 1.1.3.1.7 0 1 0zm-1.2-9.7c.7 0 1.5.1 2.2 0 .3 0 .5-.5.8-.7-.3-.2-.6-.7-.9-.7-1.3-.1-2.6 0-3.8.1-.3 0-.6.4-.8.7.3.3.6.7 1 .8.4 0 1-.1 1.5-.2zm9.1 45.4c.1 1.7.2 1.9 1.7 1.7 1-.1 1.6.2 2.3.9.3.3.6.4 1 .6 0-.4.1-.9-.1-1.3s-.6-.6-1-.8c-.9-.5-1.8-.9-2.8-1.4-.3-.1-.5-.3-.7-.5-.3.4-.4.7-.4.8zm-24.3-50.1c-.7-.4-1.1-.8-1.6-.9-.6-.1-1.4-.2-1.8.1-.9.6-1.5 1.4-2.3 2.2-.1.1-.2.3-.3.5h.5c1.6-.5 3.3-.9 4.9-1.4.2-.2.3-.3.6-.5zm6.1 84.7h-.2c.1.2.2.6.3.7.2.1.5-.1.7-.3.5-.7.9-1.4 1.2-2.2.2-.3.2-.7.3-1-.5-.1-1.1-.3-1.6-.2-.3 0-.6.5-.7.7-.1.7 0 1.5 0 2.3zm15.3-26c.5 1.3 1 2.4 1.4 3.4 0 .1.2.2.3.1.1-.1.2-.2.2-.4-.1-1 .5-1.6 1.3-2 .2-.1.3-.4.4-.7-.2-.1-.5-.2-.7-.3-.6-.2-1.3-.4-1.9-.4-.3 0-.6.2-1 .3zm1.9 11.7c0-.1-.2-.5-.3-.8 0 0-.3 0-.4.1-.8.9-1.7 1.7-2.5 2.6-.1.1 0 .6.1.6 1.4.4 3.1-.9 3.1-2.5zm-23.5 15.9c.1.4.2.8.3 1.1.3-.2.7-.3.8-.5.5-.9.9-1.8 1.3-2.7.1-.2-.1-.6-.1-.9-.4.1-.9.1-1 .3-.5.8-.9 1.8-1.3 2.7zm21.2-67.4c.4-.1.7-.3 1.1-.4-.2-.4-.3-.8-.5-1.1-.8-1-1.6-.8-2.6-.3-.8.4-.6.8-.1 1.1.6.4 1.4.5 2.1.7zm1.4 68.5c.1.8.2 1.5.3 2.1 0 .1.6.3.7.2.8-.8 1.6-1.6 2.4-2.5l.9-1.2c-.4.3-.8.6-1.1.9-.1.1-.2.3-.4.4-.6.5-1.3.7-1.9-.1-.1-.2-.4-.3-.6-.4-.2.3-.3.5-.3.6zm-7.5 15.6v1.9c0 .1.2.3.3.4.1-.1.3-.2.3-.3.2-1.1.4-2.3.5-3.4 0-.3-.4-.5-.7-.8-.1.3-.3.5-.4.8-.1.5 0 1 0 1.4zm11.5-34.6c-.1.2-.3.2-.3.3 0 .9 0 1.9.2 2.8 0 .1.7.2 1.1.1.1 0 .3-.6.2-.8-.2-.6-.5-1.3-.8-1.9-.2-.2-.3-.3-.4-.5zm.9-11.3c.1-.5.1-.6.1-.7-.7-.7-1.5-1.3-2.2-2 0 0-.3.3-.5.4.7.7 1.5 1.4 2.6 2.3zm-16.1-55.1c-.4.5-.9.9-.8 1 .2.4.6.8 1 1 .1.1.8-.5.8-.6-.2-.4-.5-.8-1-1.4zm11.4 22.7c-.4.3-.6.5-.8.6.6.4 1.1.9 1.7 1.3.1 0 .3-.2.5-.3-.4-.5-.9-1-1.4-1.6zM276.7 93c.4-.2.8-.4 1.1-.6-.4-.1-.8-.2-1.2-.2-.2 0-.4.3-.6.4.3.1.5.3.7.4zm10.4 23.1c.2-.4.5-.6.4-.8 0-.2-.3-.4-.4-.6-.2.2-.5.3-.5.5s.3.5.5.9zm-.8-25.2c-.5.4-.6.5-.8.7.2.2.4.5.6.6.1 0 .5-.3.5-.5s-.2-.5-.3-.8zm-1.3-2.1c.1.1.3.2.4.3.1-.3.3-.6.3-.9 0-.1-.3-.3-.5-.3s-.4.2-.6.4c0 .1.3.3.4.5zm10.2 43.9-.8-.4c-.1 0-.3 0-.4.1.2.1.4.3.7.4.1 0 .2-.1.5-.1zm-.7-5.7c-.1.2-.3.3-.3.4 0 .1.2.2.3.3 0 0 .2-.1.2-.2 0-.2-.1-.3-.2-.5zm-9.9-42.8c.2-.1.3-.2.4-.3-.1-.1-.1-.3-.2-.3s-.3.1-.4.2c0 .1.1.2.2.4zm-17-3.7c-.2.5-.3.6-.3.6.1.1.3.2.4.3 0-.1.1-.2.1-.2 0-.2-.1-.3-.2-.7zm28 42.7c-.1-.1-.2-.2-.2-.3-.1 0-.2 0-.3.1.1.1.1.2.2.3 0 0 .2-.1.3-.1zm-21.9-37.7c-.1.2-.2.3-.2.3.1.1.2.1.2.2 0-.1.1-.1.1-.2s-.1-.2-.1-.3zm21.5 83.5c0 .1-.1.1-.1.2.1 0 .1.1.2.1l.1-.1c-.1-.1-.1-.2-.2-.2z"/><path id="LeftWeed" d="M115.2 99h2.1c.5 0 1 0 1.4.2 1.3.5 1.4.5 1.2-.8-.3-1.7-.7-3.5-1.2-5.1-.1-.5-.8-.8-1.3-1.1-2.5-1.3-3.1-2.4-2.8-5.2.1-.5.4-.9.6-1.4.3-.6.7-1.2 1-1.9.5-1.4 2.6-1.9 3.7-.9.8.7 1.7 1.4 2.3 2.4.8 1.2 1 2.8.1 3.9-1.4 1.8-.9 3.3 0 4.9.1.2.2.5.3.7.5.9.9 1 1.5.3 1.1-1.3 2.2-2.7 3.2-4.1.8-1.2.5-2.1-.8-2.9-.8-.5-1.6-.9-2.3-1.6-.4-.4-.6-1.2-.8-1.8-.1-.1 0-.4 0-.5-1.1-1.1 0-2.1.2-3.1 0-.2.3-.5.5-.6 1.1-.9 2.3-1.8 3.5-2.7.1 0 .2-.1.2-.1 1.1-1.5 2.4-1.3 3.8-.5 1.1.6 1.3.3 1.4-.9.1-1.7.1-3.4.1-5 0-.2-.1-.4-.2-.6-.2.1-.5.2-.6.4-1.2 1.1-2.3 2.2-3.5 3.3-.9.9-1.2.8-1.9-.4-1.2-2.1-1.2-4.1.1-6.1.3-.4.7-.7 1.1-1 .6-.5 1.2-1.1 1.9-1.5.5-.4 1.2-.7 1.7-1.1.4-.3.8-.7 1.2-1.1 1.2-1.2 1.4-1 2.2.4.7 1.3.8 2.6.8 3.9 0 .6 0 1.5.4 1.8.9.6 1.9 1.4 3.1 1 .6-.2 1.2-.4 1.7-.6.7-.3 1.2-2.1.9-3-.8-2.4.4-4.7 2.6-5.9 1.6-.9 3-.6 4.6-.1 1.9.5 3.2 1.5 4.4 3 .8 1.1.6 1.4-.6 1.9-1.1.5-2.1 1.2-3.2 1.9-.2.1-.3.3-.5.4-1.3.4-2.6.7-3.8 1-.4.1-.9.3-1 .6-.1.3.1.9.4 1.2.5.4 1.2.6 1.8.9 1.7.9 3.9.6 5.2 2.4.5.7.8 1.3.5 2-.8 2.1-2.7 3.4-5.1 2.3l-.9-.3c-1.4-.4-1.4-.4-2 .9-.1.2-.2.4-.3.5-.7 1.2-.7 1.2.6 1.8.9.4 1.5.9 1.5 2 0 1 0 2 .1 3 .2 2.5-1 4.4-2.7 6-.9.8-2 .4-2.9.1-1.3-.4-2-1.4-2.5-2.6-.6-1.6-.8-1.5-2.1-.5-1.3 1.1-2.8 2.1-4.2 3.1-.2.2-.7.2-1 .2-.8-.2-1.1 0-1.2.9-.1.5-.5.9-.9 1.3-1.3 1.6-2.6 3.2-3.9 4.9-.4.5-.1.7.4.7h2.8c2.1-.1 4 .6 5.1 2.3 1.6 2.5 3.6 4.9 3.5 8.1 0 2.3-.3 2.4-2.4 1.6-3-1.1-6-2.3-9-3.6-.7-.3-1.1-.2-1.4.4-1.2 2.6-2.4 5.1-3.7 7.7-.7 1.5-1.7 3-2.3 4.6-.6 1.4-1 2.9-1.2 4.4-.2 2-.5 4 .7 5.8.2.3.4.5.6.7.1-.3.2-.6.2-.8v-3.2c0-.8.3-1.4 1-1.7 1.4-.5 2.9-1 4.4-1.3 1.4-.3 1.8.2 1.8 1.7 0 1.8 0 3.7-.1 5.5 0 .3-.5.9-.8.9-1.1.1-1.4.7-1.8 1.6-.7 1.5-1.3 2.9-2.6 4-1.1 1-1.2 2.5-.6 3.9.3.7.5 1.4.5 2.2.1 1.1 1.8 4.1 2.8 4.4.3.1.7-.2 1.1-.4 1.2-.6 2.3-1.4 3.5-1.9.8-.3 2.6 1.1 3 2.1.3.7.6 1.4.9 2 .7 1.4 1.8 1.6 2.8.4.7-.8 1.3-1.1 2.4-1.1.9 0 1.7 0 2.7.4 3.8 1.5 5.1 5 6.9 8.1.1.1.1.2.1.3-.1.6-.1 1.2-.2 1.8-.6-.2-1.2-.3-1.7-.6-1.7-.9-3.4-1.9-5.1-2.8-.2-.1-.6-.2-.8-.1-1.4.3-2.7.7-4.1 1.1-.3.1-.7.4-.7.7-.5 2-1.6 3.8-1.2 6 .1.7.4.8.9.4 1.5-.9 3.1-.5 4.6-.3.2 0 .4.6.5.9.2.6.3 1.1.5 1.7.4 1.1.5 2.1.1 3.3-.3.6-.8 1.5-.6 1.9.5.9 1.4 1.6 2.1 2.4.4.4.9.8 1.3 1.2 1.3 1.4 2.6 2.8 4 4.1.3.3 1 .2 1.4.2 1.2-.2 2.1-.1 2.9 1 .3.4.8.8 1.2 1.1.7.6 1.3.3 1.4-.5.1-1.5 1.1-3.1-.4-4.5-.2-.2-.1-.5-.2-.8-.4-1-.7-1.9-1.2-2.9-.1-.2-.8-.3-1-.1-.9.9-1.9.7-3 .7h-2.6c-.6 0-.9-.2-.9-.8 0-1.6 0-3.1-.1-4.7 0-.7.4-.9 1-.8 1.4.1 2.3-.4 2.6-1.9.1-.4.5-.7.7-1 .3-.4.7-.9.8-1.4.5-1.5 2.3-2.3 3.8-1.8 2.4.7 3.7 2.3 4.2 4.8.2 1.4.7 2.7.9 4.1.2 1.5-.5 2.9-1.3 4.2-.6.9-.6 1.8 0 2.7.3.4.3 1 .4 1.5.2.8.4 1.5.7 2.3.5 1.2.1 2.2-.3 3.3-.1.3-.4.6-.3.8.8 1.9 1 4.2 3.4 5.1 2.2.9 3.3 2.8 4.2 4.8.1.1 0 .3 0 .4-.3 0-.6.1-.8 0-1.4-.6-2.8-1.3-4.1-1.9-.2-.1-.5-.2-.7-.3.1.3.1.6.2.8.1.3.3.6.4.8 0 .2-.1.6-.2.6-.6.3-2.5-.4-3-.8-1-1-2.2-1.8-3.2-2.8-.9-.8-1.6-1.7-2.4-2.6-.1-.2-.3-.3-.5-.4 0 .2-.2.5-.1.7.1.3.5.5.5.7.1.4.3 1.1 0 1.4-1.1 1.1-.7 2.3-.3 3.4.9 2.6.1 4.4-2.2 5.8-1.4.8-2.9.8-4.4.8-1.3 0-3.1-1.3-3.4-2.5-.1-.3 0-.8.1-1.1.4-1 .8-2 1.3-3s.6-1.9-.5-2.6c-.6-.4-1.1-1.1-1.7-1.6-.2-.2-.5-.2-.7-.3-.1.3-.2.5-.2.8v2.7c0 .8-.5.9-1.1.6-.9-.4-1.6-1-1.5-2.1.1-1.5 0-3.1.1-4.6 0-.4.3-.8.5-1.3.1-.4.3-.8.4-1.2-.4-.1-.8-.3-1.2-.3-1.4-.1-2.8 0-4.2-.1-1.8-.1-2.3-.9-1.3-2.3.7-1.1 1.6-2.4 2.7-2.8 1.1-.4 2.6-.2 3.8.3 1 .4 1.8 1.6 2.6 2.4.2.2.2.5.3.7.5 1.8 1.1 3.6 1.6 5.3.1.2.3.3.5.4.1-.2.2-.4.2-.6-.1-.3-.3-.6-.4-1-.7-1.8-.6-3.5.1-5.2.2-.5.4-1 .4-1.4.1-.8-.4-1.2-1.2-1.1-1.5.1-3.5-1.2-4-2.6-.1-.3-.2-.6-.4-.8-.4-.6-.9-.8-1.5-.1-.3.3-.6.7-1 .8-1.2.6-2 .1-2.4-1.2-.2-.8-.6-1.6-.9-2.4-.1-.1-.3-.2-.4-.3-.1.2-.2.3-.2.5 0 1.3-.1 2.6 0 3.9 0 1.3-.9 1.9-1.8 2.5-.9.6-1.8.6-2.7-.1-1-.8-2.2-1.5-2.6-2.9 0-.1-.6-.3-.7-.2-1 .6-2 1.4-3 1.9-.3.2-.9.1-1.2 0-.8-.3-1.6-.8-2.5-1.2-.1.2-.2.3-.2.5.2 1.1-1.5 2.9-2.6 2.8-.6-.1-1-.3-1-1 .1-1.2-.5-2.4.9-3.3.1-.1.2-.6.1-.7-.5-.8 0-1.3.3-1.9.2-.5.3-1.1.4-1.7.1-.3.2-.7.4-.9 1.1-1.2 2.2-2.3 3.3-3.4.2-.2.3-.4.4-.6-.3-.1-.5-.3-.8-.4-.8 0-1.7-.1-2.4.1-.5.1-1.1.6-1.4 1.1-.8 1.6-1.4 3.2-2.2 4.8-.4.8-1 1.4-1.6 2.1-.4-.6-.9-1.1-1.3-1.7-.5-.9-.9-1.9-1.3-2.9-.4-1.1-.3-2.2.7-3.1.5-.4.7-1.1 1.1-1.6.1-.2.2-.6.4-.7 1.3-.8 1.2-2 1.2-3.2 0-.5.1-1 .1-1.5 0-.3 0-.9-.1-1-.4-.1-.8 0-1.2.1-.7.2-1.3.5-2 .6-.7.1-1.1-.3-1.1-1 0-1.7-.1-3.4 0-5 0-1.4 1.8-2.5 3.1-1.8 2 1 4.1 2 6 3.1 1 .6 1.9 1.4 2.9 2.1.3.2.5.6.8.8.2.1.5.1.7.1 0-.2.1-.5 0-.6-.5-1.2-1-2.4-1.6-3.5-.1-.2-1.1-.3-1.4-.1-1.3 1-2.3-.2-3.4-.3-.1 0-.2-.5-.2-.8v-5.3c0-.4.2-.9.4-1.3.1-.1.2-.3.2-.4 0-1.6 1.4-2.3 2.3-3.3.8-.8.8-1.6.3-2.3-.7-1.1-.7-2.2-.7-3.4 0-.7-.2-1.3-.3-2-.2-.9-.4-1.7-.5-2.6-.1-1-.4-1.3-1.3-.9-1.8.8-3.5 1.6-5.4 2.2-.9.3-2 .2-3 .1-.2 0-.6-.3-.6-.6-.2-1.1-.5-2.1.3-3.1.2-.2.2-.6.4-.8.4-.5.9-1.1 1.5-1.5.6-.5 1.4-1 2.1-1.5.7-.5 1.4-.9 2.1-1.4.2-.2.5-.6.4-.9-.7-2.6-2.2-4.8-3.7-6.9-.6-.9-.7-2.1-1-3.2 0-.1.4-.5.5-.5.6.1 1.3.1 1.7.5 1 1 1.9 2.2 2.8 3.4.7.9 1.3 1.9 2 2.9.1.1.2.1.3.2.1-.1.2-.3.1-.4-.1-1.2.3-2.2.7-3.3.5-1.3.1-3-.1-4.6 0-.3-.6-.7-1-.8-2.4-1-4-3.5-3.9-6.1.1-1.7-.2-3.4.6-5.1.8-1.5 2.1-2 3.6-2.3.5-.3 1.4-.2 2.2-.2zm18.9-16.4v2.7c0 .5.2.7.6.3.7-.8 1.3-1.7 2-2.6.6-.9 1.2-1.9 2.4-2.2 1-.2 2.2-3 1.6-3.8-.9-1.1-.9-2.3-.7-3.5.1-.8-.4-1-1-.7-1.4.6-2.6 1.4-3.2 2.9-.4 1-.5 2.3-1.1 3.2-.9 1.1-.8 2.4-.6 3.7zm-7 74.7c-.3-.7-.3-1.3-.6-1.4-1.3-.5-2.2-1.4-3-2.5-.1-.1-.4-.3-.5-.2-.2.1-.4.4-.3.5.1.4.2.7.4 1.1.4.9 1 1.7 1.3 2.6.3.7.6 1.5 1.5 1.3.5-.2.8-.9 1.2-1.4zm-2.3 8.9c-.2 0-.3-.1-.5 0-.8 0-1.6-.1-1.9.9-.2 1.1.6 1.4 1.3 1.8 1.5.7 1.5.7 2.5-.9.8-1.4.7-1.6-.9-1.7-.1-.1-.3-.1-.5-.1zm26.7 2.7c-.3.5-.9.9-.9 1.4-.2 1.2 1.3.8 1.7 1.5 0 0 .6-.1.8-.3.1-.1 0-.5-.1-.6-.3-.6-.6-1.1-1-1.6-.1-.1-.3-.1-.5-.4zm-28.9-6-.3-.9c-.3.2-.7.4-.9.7-.2.5-.4 1-.5 1.5 0 .3.3.6.4.9.2-.2.6-.4.7-.6.3-.6.4-1.1.6-1.6zm-1.1-54.8c-.2-.1-.4-.3-.5-.3-.3.1-.9.3-.9.4.2 1.5-.8 2.4-1.5 3.4-.1.1-.1.3-.1.5.2-.1.4-.2.5-.3.5-.5.9-1.1 1.3-1.6.4-.6.7-1.3 1.2-2.1zm8 49.3c-.2-.5-.5-1-.7-1.5-.1.5-.3 1.1-.3 1.6s.3 1 .4 1.5c.3-.5.5-1 .6-1.6zm11.6-74.9c-.1.2-.3.4-.2.5l.4.4c.1-.1.3-.2.2-.3 0-.2-.2-.4-.4-.6zm3.7 113.5c.1-.2.2-.4.2-.5-.1-.1-.2-.2-.4-.3-.1.1-.2.2-.2.3.1.2.3.3.4.5z"/><g id="Tower_1_"><path id="Tower" d="m194.8 81.2 6.3-21.4s5.3 17.7 6.4 21l3 78.3h7.1v12.2h8.8v4.9s.2 1.5 1.1 1.7c1.3.4 2.5.9 3.7 1.3.4.1.5.8.5.8s0 1.4-.4 1.7c-.1.1-.3.2-.3.2h-6s-1.1-.6-1.7-.6c-1.2-.1-2.3-.2-3.5-.2-.7 0-1.1-.3-1.4-.9-2-3.2-3.7-6.5-6.7-9-1.9-1.6-2.5-3.9-3.8-5.9-.7-1.2-1.4-2.4-2.2-3.5-.9-1.2-2-2.2-3.1-3.2-1.5-1.4-3.9-1.6-5.4-.3-1.6 1.4-6.8 7.4-7.9 8.9-1.7 2.4-3.4 4.8-5 7.3-1.1 1.7-4 6.4-4 6.4h-17.7v-.5l5-3h4.8v-6.9h9.6v-11.3h8.7l4.1-78z"/></g><path d="M218.7 183.5c-1.9-3.2-4-6.3-6.1-9.4-.3-.4-.7-.9-1.2-1-1.5-.4-2.2-1.4-2.7-2.7-.7-1.5-1.2-3.2-2.1-4.7-1.4-2.4-2.9-4.7-5.5-6.1-1.7-.9-3.1-.9-4.4.5-1.2 1.3-2.2 2.7-3.2 4-.7.8-1.4 1.6-2.1 2.5-.5.6-.8 1.4-1.4 2-.7.8-1.6 1.5-2.2 2.4-.8 1.2-1.4 2.5-2.2 3.7-1.3 2.2-2.7 4.3-4.1 6.5-.5.9-.8 1.9-1.4 2.6-1.5 1.7-2.1 3.7-1.9 5.9.1.6.3 1.1 1.1.8.6-.3 1.1 0 1.5.5.8 1 1.8 1.3 3.1 1.3 1.6 0 3.7-.9 4.7 1.4l.1.1c1.5.3 2.8 1.6 4.6 1.2 1.1-.2 2.3-.1 3.4 0 .5 0 .9.1 1.4.3.7.2 1.4.5 2.2.6.9.1 1.8 0 2.7 0h3.4c.3 0 .6 0 .8-.1 1.7-.6 3.5-1.1 5.1-1.8 2.8-1.3 5.6-2.8 8.3-4.2.2-.1.5-.6.5-.8-.8-2-1.4-3.8-2.4-5.5zm-2.4.6 1 1c-.4.3-.8.6-1.3.9-.2-.2-.5-.5-.5-.7.2-.3.5-.6.8-1.2zm-7.1-9.2c.4-.5 1-.1 1.1.5.1.4.1.8.1 1.1.1 1.7-1 2.4-2.3 1.7-.2-.1-.5-.5-.4-.6.5-.9.9-1.9 1.5-2.7zm-5.3-6.9c.4-.1.9 0 1.3.2.3.2.6.6.7 1 .2.6.3 1.3.4 1.7 0 1.4-1 1.1-1.7 1.3-.8.2-.9-.4-1-.9-.1-.8-.1-1.6-.1-2.3 0-.4.2-1 .4-1zm-1.8-3.9c.3.1.7.2.9.4.3.5.5 1 .7 1.6-.2.3-.3.6-.4.9-.2-.2-.5-.3-.7-.6-.2-.4-.4-.8-.5-1.3-.1-.4 0-.7 0-1zm2.4 12.4c-.1-.3 0-.6 0-1-.4-1.5.9-2.1 1.7-2.9.2-.2.9.1 1.2.3.3.3.7.8.6 1.1-.1.3-.7.6-1.1.6-1.5.2-1.5.2-1.5 1.7 0 .3-.2.6-.3.9-.3-.2-.5-.5-.6-.7zm3.5 16.7c-1.1 0-.9-.9-.9-1.6-.1-1.3 0-1.3 1.7-1.3.6.1 1.5-.3 1.5.9.1 1.1-1 2.1-2.3 2zm5.8-2.7c-.5.2-1.1.5-1.6.7-.7.3-1.2 0-1.4-.6-.1-.4.2-.9.4-1.3 0-.1.3-.2.3-.3.2-.3.4-.7.6-1-.5.1-1.1 0-1.4.3-.9 1.1-2.2 1.3-3.5 1.4-.7.1-1-.2-1-.9v-2.6h-.1c0-.7-.1-1.5 0-2.2.1-.4.4-.9.6-1.3.1-.3.3-.6.3-.9 0-.2-.2-.4-.3-.6-.1.1-.4.3-.4.4-.4.8-.8.4-.9-.1-.2-.6-.2-1.3-.1-1.9 0-.2.6-.5.9-.5 2.3.3 4.7.6 7 1 .9.2 1.9 2 1.5 2.8-.1.2-.5.5-.8.5-.9.1-1.7.1-2.6.2-1 .1-1.2-.2-1.1-1.2.1-.4 0-.8 0-1.2-.5.3-1.3.6-1.4 1-.3 1.1-.2 2.2-.3 3.4 0 .1.4.2.5.2.5-.3.8-.7 1.3-1 .8-.6 1.7-.8 2.5.1.1.1.3.2.5.2.6 0 1.2.2 1.2.9.1.7.3 1.4-.6 1.8-.1 0-.1.4 0 .5 1.4 1.2 1.3 1.6-.1 2.2zm3.1-.8c-1.1.2-1.2-.8-1.3-1.5-.1-1 .2-1.2 1.7-1.3.8 0 1.3.5 1.3 1.7s-1 1-1.7 1.1z"/><g id="GraySpots"><path d="M189.1 181.8c-.7 0-1.2.4-.8.9.1.1.5.1.7.2.1.1.1.4.1.5.4 1.3.9-.1 1-.4 0-.3.4-.1.7-.2.4 0 .4-.3.3-.6-.1-.2-.3-.4-.4-.5-.6.1-1.3.1-1.6.1z" style="fill:#665e6a"/><path class="st7" d="M196.1 177.4c.6 0 1-.5 1.1-1.1V176c0-.2.1-.3.1-.5.2-.5-.2-1.2-.8-1.3-.6-.1-1.1.2-1.3.8-.1.4-.2.9-.3 1.4.1.5.7 1 1.2 1zM183.3 184.5c.9 0 .9-1.4 0-1.4-.9-.1-.9 1.4 0 1.4zM196.6 164.6c-.1.3-.1.7.1 1 .2.4.6.6 1 .6.6.1 1.2-.3 1.5-.8.3-.5.3-1.3-.2-1.8-.2-.2-.4-.3-.6-.3-.4-.1-.8-.1-1.1.2-.3.4-.6.8-.7 1.1zM182.2 187.8c.5 0 .5-.8 0-.8-.5-.1-.5.8 0 .8zM187.2 180.8c.9 0 .9-1.4 0-1.4-1 0-1 1.4 0 1.4zM189.9 187.8c.8-.2.8-.8.8-1.8 0-.7-1.5-1.2-1.9-.4-.2.5-.8.9-1.2 1.1-.6.3-2.3 1.4-.9 2.5.2.1.4-.8 1.5-1.3.9-.3 1.3 0 1.7-.1zM202.1 169.5c.1-.4 0-1.2-.3-1.2-.2 0-.5.6-.6.8-.1.4 0 1.5 0 1.6 0 0 .2.6.4.7.2 0 .4-.7.4-1.1V169.7c.1-.1.1-.1.1-.2zM200.9 174.6v.8c0 .3 0 .3.2.5s.6-.2.6-.8v-.6c0-.3-.1-1-.3-.9-.5.1-.5.4-.5 1zM200.8 178.6c-1.4 0-1.4 2.2 0 2.2s1.4-2.2 0-2.2zM201.4 186.4c-.3-.1-.6-.1-.8 0-.1-.1-.3 0-.4 0-.4.2-.8.5-1.1.8-.4.4-.6.8-.5 1.4.1.5.5.9 1 .9.4 0 .7-.2 1-.5.2-.2.4-.5.6-.8.2-.3.4-.6.5-.9.1-.2 0-.7-.3-.9zM195.7 168.4c.1 0 .1.1.2.1h.2c.1 0 .2-.1.3-.2.1-.1.1-.3.1-.4 0-.1-.1-.2-.2-.3h-.1v-.5c0-.1-.1-.3-.1-.4-.1-.1-.2-.2-.4-.1-.1 0-.3 0-.4.1-.1.1-.1.2-.1.4s0 .5.1.7c0 .2.1.3.2.4-.1 0 0 .1.2.2zM196.9 186c2 .3 1.1-2.8 1.1-3.9-2-1.5-3.7 3.5-1.1 3.9zM195.7 189.9c.4-2.1-2.5-4.7-3.1-1.6.1 1 1.6.6 1.6 1.5-.5 2.7 2.1 2.9 1.5.1zM190.9 173.4c0 .1-.1.1-.1.2-.1.1-.1.3-.1.4v.4c0 .1.1.3.2.4l.3.3c.2.1.6.2.8.1.3-.1.5-.2.6-.5 0 0 0-.1.1-.1.2-.2.3-.5.3-.8 0-.1 0-.3-.1-.4 0-.1-.1-.2-.2-.3-.2-.2-.5-.3-.8-.3-.3 0-.6.1-.8.3 0 0-.1.1-.2.3zM190.4 177.3c-.2.1-.4.3-.6.4-.2.2-.4.4-.5.6-.1.3 0 .6.1.8.1.2.4.4.6.5.3.1.6.1.8-.1.2-.1.4-.3.6-.4.2-.1.4-.4.5-.6.1-.3 0-.6-.1-.8-.3-.5-.9-.7-1.4-.4z"/></g><g id="PencilGroup"><path d="M233.8 213.8h1.9v1h-1.9zM243.6 213.4v-2.9c0-.4.3-.7.8-.7h3.3s.2 0 .2.2c.2.4.4 1 .6 1.5.2.4.3.9.3 1.4v2.5c0 .2-.1.4-.2.5-.2.2-.5.5-.7.6-.9.4-1.9.7-2.9.8-.6.1-1.4-.3-1.4-1.3v-2.6zM228.1 210.4h-4.9c-3.3 0-4-.5-4.8-3.7 0-.1 0-.2-.1-.3-.5-1.1-1-2.1-1.5-3.1-.1-.3-.5-.4-.8-.5-.1.3-.3.6-.3.9v5.6c0 .8.2 1.2 1.1 1.3.9.2 1.4.9 1.5 1.8.1.5 0 1 .1 1.5.1.7-.2.9-.9.9-2.9 0-5.7 0-8.6.1-.6 0-.8-.2-.9-.8-.1-1-.3-2-.6-3-.2-.6 0-.8.6-.7.6.1 1.2.2 1.7.1.3 0 .5-.5.8-.7-.3-.1-.5-.3-.8-.3-.7-.1-1.5.1-2.1-.1-.6-.3-1.1-.9-1.5-1.4-.1-.1.5-.8.9-1.2.3-.3.7-.4 1-.6 1.7-.9 2.8-3.3 2.4-5.2-.3-1.4-.8-1.8-2.3-1.9h-3.4c-1.1 0-1.9.5-2.1 1.6-.2 1.3-.5 2.7.4 3.9.1.1.1.3.1.5-.2-.1-.4-.1-.5-.2-.3-.4-.6-.8-.8-1.2-1.7-3.3-4.3-5-8.2-4.7-.6.1-1.2.2-1.8.4.3.7.5 1.4 1 2.1.2.3.8.2 1.2.3.2 0 .4.1.5.2-.1.2-.1.5-.3.6-.7.4-.7 1-.6 1.6 0 .9.1 1.7 0 2.6-.1.8.3 1.1 1.1 1.1 1.5 0 3.1-.1 4.6 0 .5 0 1.1.3 1.6.5.2.1.3.6.5.9-.3.1-.6.3-.8.3-3.1 0-6.3-.1-9.4-.1-.7 0-1.1-.3-1.4-1-.8-1.6-1.8-3.1-2.7-4.7-.2-.3-.3-.6-.3-.9-.2-1.5-.2-1.5-1.6-.9-.2.1-.5.1-.8.1 0-.3-.1-.5-.1-.8 0-.9-.1-1.8.6-2.5.1-.1 0-.6-.2-.8-1-.8-2-1.8-3.1-2.4-1.7-.9-3.5-1.6-5.3-2.3-.7-.3-1.6-.4-2.4-.4-.7 0-1.1.3-1.2 1.1 0 .9-.7 1.4-1.7 1.5h-2.2c-.8-.1-1.4.1-1.3 1 0 .8-.1 1.8 1.1 1.8.8 0 1.3.5 1.4 1.3.1.3.2.6.4.8.5.5.9.9 0 1.4-.2.1-.3.7-.2.9.7 2.1 2.6 3.4 4.9 3.2 1.3-.1 2.1-1 2.1-2.3 0-1.2.2-1.5 1.3-.9 1.8 1 3.5 2.1 5.1 3.2.6.4 1.1 1.1 1.5 1.7.6 1 .4 1.4-.8 1.4H179c-.3 0-.5-.1-.8-.2-.9-.2-1.8-.5-2.7-.6-4.8-.1-9.7 0-14.5 0-.3 0-.7.1-1 .2l-4.2 1.5c-.6.2-1.2.4-1.7.7-.2.1-.4.4-.6.7.2.2.4.4.7.5 1.2.4 2.4.7 3.5 1.2 1.9.9 3.9 1.4 6 1.4h23.6c.4 0 1 .2 1 .3 0 1 .1 2.1-.3 2.9-1.2 2.1-.7 4 1.6 4.9.1.1.3.1.4.2 2.1 1.2 3.9.6 4.8-1.5 1-2.3 1-2.3 3.4-2.3.6 0 1.2-.1 1.8 0 .7.1 1.4.2 2 .4.6.1 1.1.4 1.7.5 1.2.2 2.6-.3 3.6.9l.2.1c1.4-.5 2.5.4 3.7.7.5.1 1 .2 1.5.1.4 0 1-.3 1-.5.1-.4-.1-.9-.4-1.2-.4-.4-1-.7-1.5-1-.9-.5-1.9-.9-2.7-1.5-.4-.3-.5-1-.7-1.5.4-.1.8-.3 1.3-.4 1.6 0 3.1 0 4.7-.1.9 0 1 .3 1 1.1 0 1.8 0 3.5.1 5.3 0 .3.5.6.8.9.3-.3.6-.5.7-.9.3-.6.3-1.4.6-2 .5-1 1.1-2 1.5-3 .4-1 1.1-1.5 2.2-1.4 1 .1 3.1.1 3.1.1l3.2-4.7v-.4zm-59.1 3.4c-2 0-4 0-6-.1-.6 0-1.3-.2-1.6-.6-.5-.6-.7-1.4-1-2.1.7-.2 1.3-.4 2-.4 1.2-.1 2.5 0 3.7 0h4.3c.7 0 .9.2.9.9.1 2.4.1 2.4-2.3 2.3zm6.6-.4c0 .2-.6.4-.9.4-.2 0-.6-.3-.7-.5-.1-.4 0-.8 0-1.1.2-.7-.5-1.8 1-1.6.2 0 .6.3.6.5 0 .7.1 1.5 0 2.3zm4.4 0c0 .2-.6.5-.8.5-.3 0-.7-.3-.8-.6-.1-.3 0-.8 0-1.2 0-.3-.1-.6 0-.9.1-.3.4-.8.5-.7.4.1.9.3 1 .6.2.8.2 1.6.1 2.3zm13.5 3.1c-.5 0-.4-.6.1-.6.6 0 .6.6-.1.6zm-1.4-1.7c-.2 0-.6 0-.7-.1-.3-1.2-1.2-.8-1.9-.8h-6.8c-.8 0-1-.2-1-1 .2-2.3.1-2.3 2.4-2.3h8.4v-.1h9.8c.3 0 .7.1.8.3.6 1 1.2 2 1.7 3 .4.7.2 1-.6 1h-12.1zm13.3 3.4c-1.5 0-3 .2-4.4 0-.9-.2-1.8-.9-2.5-1.6-.5-.4-.3-.9.4-.9h6.4c1.1 0 .7.8.8 1.3.1.6.1 1.2-.7 1.2z"/><path d="M235 213.4c.2-.3.5-.5.7-.8.4-.7 1.2-1.8.6-2-1.7-.4-7.3-.3-7.3-.3l-3 4.4v1h2.5l.3.7h4.9v-.6c0-.3.1-.5.2-.7l.2-.3c.1 0 .9-1.4.9-1.4zM242.7 212.3c0-.3-.3-.9-.5-.9-.5 0-1.4.1-2.1-.3-.4-.2-.3-.7-.6-.7-.7-.2-1.8.1-2 .3-.6.5-1.3 1.6-1.5 2-.2.4-.4.7-.7 1.2-.1-.1-.4 1-.4 1s-.2.8-.2.9c-.1.4-.1 1-.1 1h7.4c.6 0 .9-.4.9-1-.1-1.2-.1-2.4-.2-3.5z"/></g><g id="RightBush"><path d="M237.3 205.4c.3.8.6 1.6 1 2.4.3.7.1 1-.7 1-1 0-2 0-2.9-.1-.2 0-.5-.2-.7-.5-1.1-1.6-1.9-3.4-3.2-4.8-2.6-3-5.6-5.6-9.1-7.4-.9-.5-1.6-1.4-2.9-1.3-.1 0-.4-.8-.5-1.2 0-.1.7-.5 1-.4 4.7 1.3 9.1 3.2 12.9 6.3.2.2.5.3.8.4v-1c-.3-1.1-.9-2-2-2.6-2.1-1-4.1-2.3-6.1-3.5-.4-.2-.5-.7-.8-1 .4-.2.8-.4 1.2-.5 2.5-.4 4.8.4 7.1 1.3 1.3.5 1.5.5 1.5-1 0-2.4.3-4.9-.1-7.2-.2-1.3-.5-2.7-1-4-.3-.9-.6-1.7-.7-2.7 0-.4-.3-.9-.4-1.3-.1-.2-.4-.4-.3-.6.1-.7.2-1.3.3-2 .4.3.9.5 1.2.9 1 1.6 2 3.3 2.8 5 .6 1.3.8 2.7 1.3 4.1.1.4.5.7.7 1 .2-.3.5-.6.5-.9.1-2 .6-3.9 1.9-5.5v-.1c.1-.8.4-1.7 1.3-1.1.4.3.3 1.5.3 2.3-.1.8-.5 1.5-.5 2.3-.1 1.9 0 3.7 0 5.6 0 .3.2.6.3.9.2-.2.6-.4.7-.7.8-1.7 1.9-3.1 3.4-4.3.9-.7 2-1.2 3-1.7.3-.1.9-.1 1 0 .2.3.2.8.1 1.2 0 .3-.3.5-.5.8-2 2.2-3.8 4.7-5 7.5-.7 1.6-.9 3.4-1.3 5.1-.1.4-.3.9-.5 1.3v.4c.1-.1.3-.1.4-.2 2.5-2 5-4.1 7.5-6.1 1.3-1 2.6-1.9 4-2.8.2-.1.7-.1.8 0 .1.2.1.6 0 .9 0 .1-.1.2-.2.3-2.4 2.5-4.1 5.6-6.8 7.8-2.1 1.7-4.1 3.5-6.2 5.2-.6.5-1.4.8-2.1 1.2-1 .6-1.8 1-2.5 1.3-.1-.2-.2-.5-.3-.7 0 0-.2.1-.3.1.2.2.3.4.5.6h.1zm.2-10.8c-.2 1.5.3 3.5-.8 5.3-.1.2-.1.7 0 .7.2.2.7.2.8.1.3-.3.7-.7.6-1.1-.2-2.7.3-5.3 1.5-7.8.1-.1 0-.4-.1-.6l-1.2-1.2-.6-.3c-.1.2-.2.5-.2.7v4.2zm-.8 7.5c-.3-.4-.5-.9-.9-1.1-.4-.2-1 0-1.4 0 .2.4.5.9.7 1.3.1.1.2.3.3.4l.9.6c0-.3.2-.7.4-1.2z"/><path d="M241.4 210c-.1-.1-.2-.1-.3-.2-.5-.6-1.1-1.2-1.6-1.8-1.1-1.6-1-2 .7-2.9.2-.1.4-.2.6-.4 2.5-2.7 5.9-3.8 9-5.3.7-.3 1.6-.3 2.4-.5.5-.1 1-.2 1.4-.5.7-.6 1.1-.1 1.3.4.1.3-.2 1-.5 1.1-1 .6-2.2 1-3.2 1.6-2.9 1.5-5.5 3.4-7.6 5.9l-1.8 2.1c-.1.2-.2.3-.4.5zM227.3 203.2c1 .3 2 .7 2.9 1 1.1.3 1.4 1.4 1.8 2.3.1.1-.3.6-.4.6-.7-.1-1.3-.3-1.9-.4-.5-.1-.9-.4-1.4-.4-1.9-.1-3.8 0-5.7-.1-.3 0-.7-.2-1-.4.2-.3.4-.6.7-.8 1.5-.9 3-1.9 5-1.8z"/></g><g id="BirdGroup"><path d="M178.2 37.8c-1.3 1.4-2.9 2.4-4.8 1.8-.3-.1-.4-.4-.2-.7.7-1.1 3.3-1.8 4.2-2.5.4-.2.7-.2.9.1.3.4.2 1-.1 1.3zM227.7 40c-1.2-.3-2.1-1.2-3.1-1.8-.1-.1-.2-.6-.1-.7.3-.3.7-.8 1.1-.7 1.1.1 3.2 1.3 3.7 2.7 0 .1.2.4.1.4-.1.1-.5 0-.8.1-.3 0-.5.1-.9 0zM239.2 44c.2.2.2.6-.1.8-.4.2-.6.4-.7.3-.7-.1-1.1-1-1.6-1.6-.2-.2-.2-.6 0-.7.3-.3.4-.5.7-.4.7.1 1.1 1 1.7 1.6z"/><path id="Bird" d="M199.5 27.7s.1 0 0 0c3.8-.1 2.7-.4 4.5 2.7 1.3 2.3 2.8 4.5 4.2 6.8v.1c1.1 1.3 1.5 4.8 3.5 4.5 6.4-.6 6.6-6.8 11.4-9.4 3.4-2 6.7 1.2 9.4 3 1.4 1.1 2.9 2 4.1 3.2 1.5 2 3.8 2.4 5.9 3.4h.1c.5.1 1.5-.4 2.1-.4.1 0 .2.1.3.2 1.3 2.1-1.5 1.6 2.4 3.9 0 0 .1 0 .1.1.4.4.8.7.4 1.4l-.1.1c-.2.7.3 1.4.6 2.1.1.2.5 1.3.4 1.4-.2.1-.9-.7-1.1-.9-.8-.7-.7-1.5-1.1-2.8 0-.1-.1-.1-.1-.2-1.4-1.5-2.4-3.5-4.5-4.2-4.7-1.7-8.4-5-12.1-8.3-6.4-5.1-9.3 1.6-12.8 6-1.6 2.1-4.2 2-6.6 2.1-.3 0-.5.3-.4.5.4 1.9 1.8 2.2 1.1 3.3-.1.1-.6.1-.8 0-2.7-2.6-5.6-5-8.5-7.5-1.4-1.3-4-2.1-3.9-4.3v-.2c.4-1 1.8-1.1 2.9-1.5.3-.1.5 0 .6.3.2.6.2 1.3.2 2-.3 1.8 1 2.5 2.1 3.4 1.6 1.3 3 2.8 4.9 3.7.3.1.6-.1.7-.4 0-1.5-1.1-2.7-1.9-4-1.5-3-3.5-5.8-5.3-8.6l-.1-.1c-2.1-1.5-5.4-.3-7.6.4-.1 0-.1 0-.2.1-3.1 2.7-.2 9.4 3.3 11 1.2.7 2.2 1.9 3.2 3 .6.6.3 1-.5 1.2-1.8.4-3.1-.5-4.6-1.3h-.1c-10.9-7.8-14.9-17.9-27.4-3.8-.5.6-.7 1.3-1.1 1.7-1 .9-2.3 1.3-3.5 2.1-1.4.9-2.7 1.9-4.1 2.9-.8.5-.6 1.1-.1 1.6.3.4.2 1-.3 1.2-6.3 2.6.7 2.1-1.6 4-.6.3-1 .8-.9 1.4 0 .2.1.3.3.4 1.2.4 5.2-1.6 6.4-1.9 5.1-2.1 10-6 15.8-4.7h.1c1.5.7 2.8 1.9 4.1 2.9 5 4 12-2.9 4.7 6.9-.5.7-2.8 2.5-.8 2.6 2.9-.1 4.7-1.8 6.1-4 .3-.5.5-.9 1-.8.1 0 .2.1.2.3.4 1-.5 2.5-.6 3.5-.1.6 0 1 .8.7 2.7-1 5.4-1.9 8.1-2.8 2.4-1 6.2-2.5 6.8-5.2 0-.1 0-.1.1-.2.2-.2.6-.4.7-.4 3.9 3.3 10-3.3 18.2-1.5l10.5 2.4c2.3.7 4.6 2 7 2.5.7.2 1.2.1 1.4-.3.3-.6.1-1.8.2-2.6 0-.3 1-1.1 1.2-1.1.1 0-.2.5-.3.9-.1.3.1.5.1.7-.1.7-.1 1.3-.2 2-.1 1.5-.2 1.5-1.7 1.5-2.9.1-5.3-1-7.6-2.5-2.6-1.2-5.7-1.3-8.5-2-3-.6-6-1.3-9.1-.5-2 .5-3.9 1.3-5.8 1.8-2 .8-5.1-.3-6.4 1.6-2.2 3.4-6.7 3.8-10.4 4.9-7.1 1.4-8.7 7.9-9.8 4.5v-.1c-.2-.2-.7-.4-.8-.3-1 .8-2 .3-3 .2-.1 0-.2 0-.3-.1-.6-.7.5-1.9-.9-2.7-2.3-1.1 8-6.9 4.4-7.4h-.1c-7.4.3-9.3-7.9-17.5-3.2h-.1c-1.4 1.1-18.7 8.8-16.2 4.2.3-.5.7-1 1.1-1.4 1.4-1.4-1.9-2 0-3.5l.1-.1c.6-.8 2.4-1.5 2.1-2.5V47c.5-1.3 2.5-2.2 3.5-3.1 3.3-2.4 6.5-4.9 9.2-8 2.8-3.7 7.5-5.8 11.8-3.5 3.8 1.6 6.1 5.1 9.5 7.3.6.5 1.2 1.1 1.8 1.7 0 0 .1.1.2.1 1.1.5 2.5 1.7 3.8 2.2.5.2.9-.4.5-.8-2.4-2-4.8-3.9-6.1-6.8-1.8-5.4 1.6-8.8 7.3-8.4zm44.6 16c.1.1.2.3.4.1-.1-.1-.2-.4-.4-.1z"/><path d="M176.4 43.1c-1.6.6-3.5 2.1-4.6.1l4.5-2.4c.4-.3.7-.5.9.2.2 1.4 1.7.2 2.3.7.5.8 1.1.9 1.9.8 2.1.4 3.9 2 6 2.8 1.6.7 4.8.2 4.8 2.8-.2.7-1.1.7-1.6.4-1.8-.8-4-.5-5.7-2.1-1-.9-2.4-1.6-4-1.3-1.4-.6-2.9-1.4-4.5-2zM234.9 48.9c-.1.9-1.7.3-1.9 0-1.8-2.6-12.2-2.5-14.1 0-1.3 1.6-2.6-1.5-1-2.1 2.4-.9 7.9-1.2 8.7-1.2 2.9.3 8.5-1.3 8.3 3.3z"/></g><path id="LeftStar_1_" d="m177.3 127.1 7.4-5.4h-9.1l-2.8-8.3-2.7 8.3H161l7.4 5.4-2.9 8.8 7.3-5.5 7.4 5.5z"/><path id="RightStar_1_" d="m233.4 127.1 7.3-5.4h-9.1l-2.7-8.3-2.7 8.3h-9.1l7.3 5.4-2.8 8.8 7.3-5.5 7.4 5.5z"/></g></svg>